<svg xmlns="http://www.w3.org/2000/svg" width="100%" height="100%" viewBox="0 0 100 100">
    <rect width="100" height="100" fill="white" />
    <circle cx="50" cy="50" r="20" fill="none" stroke="black" stroke-width="6" />
    <line x1="8" y1="50" x2="22" y2="50" stroke="black" stroke-width="6"/>
    <line x1="8" y1="50" x2="22" y2="50" stroke="black" stroke-width="6" transform="rotate(45, 50, 50)"/>
    <line x1="8" y1="50" x2="22" y2="50" stroke="black" stroke-width="6" transform="rotate(90, 50, 50)"/>
    <line x1="8" y1="50" x2="22" y2="50" stroke="black" stroke-width="6" transform="rotate(135, 50, 50)"/>
    <line x1="8" y1="50" x2="22" y2="50" stroke="black" stroke-width="6" transform="rotate(180, 50, 50)"/>
    <line x1="8" y1="50" x2="22" y2="50" stroke="black" stroke-width="6" transform="rotate(225, 50, 50)"/>
    <line x1="8" y1="50" x2="22" y2="50" stroke="black" stroke-width="6" transform="rotate(270, 50, 50)"/>
    <line x1="8" y1="50" x2="22" y2="50" stroke="black" stroke-width="6" transform="rotate(315, 50, 50)"/>
</svg>
